<?xml version="1.0" encoding="iso-8859-1"?>
<!-- Generator: Adobe Illustrator 19.0.0, SVG Export Plug-In . SVG Version: 6.00 Build 0)  -->
<svg version="1.1" id="Capa_1" xmlns="http://www.w3.org/2000/svg" xmlns:xlink="http://www.w3.org/1999/xlink" x="0px" y="0px"
	 viewBox="0 0 490 490" style="enable-background:new 0 0 490 490;" xml:space="preserve" height="40" width="40">
<g>
	<g>
		<path d="M490,188.6c0-20-9.5-38.9-25.2-50.5c3.2-7.4,4.2-15.8,4.2-24.2c0-39.9-32.6-72.5-71.5-72.5c-7.4,0-15.8,2.1-23.1,4.2
			c-11.6-13.6-28.4-22-47.3-22c-31.2,0-57.3,22.9-62.2,52.8c-6.5-0.7-13.2-1-19.9-1c-7,0-13.8,0.4-20.6,1.1
			c-6.4-28.1-31.6-49.2-61.5-49.2c-18.9,0-35.7,8.4-47.3,22.1c-7.4-2.1-15.8-4.2-23.1-4.2C53.6,45.2,21,77.7,21,117.7
			c0,8.4,1.1,16.8,4.2,24.2C9.5,153.4,0,172.3,0,192.3c0,33.2,23.1,60.4,53.1,65.4c-0.3,4.4-0.4,8.7-0.4,13.2
			c0,108.3,86.2,195.5,192.4,195.5s192.4-88.3,192.4-195.5c0-5.7-0.2-11.3-0.7-16.8C466.8,249.2,490,221.9,490,188.6z M42,194.4
			c0-10.5,7.4-20,16.8-22.1c12-0.6,22.6-21.3,10.5-33.6c-5.2-5.3-7.4-12.6-7.4-20c0-16.8,13.7-31.5,30.5-31.5
			c6.3,0,12.6,2.1,17.9,6.3c6,6,26.7,7.5,32.6-10.5c3.2-8.4,11.6-14.7,20-14.7c10,0,18.5,7.1,20.5,17.3
			c-59.3,20.3-105.7,69.2-123.2,130.7C50,214.9,42,206,42,194.4z M245,424.3c-83,0-151.4-68.3-151.4-153.5
			c0-85.1,68.3-154.5,151.4-154.5s151.4,68.3,151.4,153.5S328,424.3,245,424.3z M428.7,212.7c-18.3-60-64.2-107.5-122.6-127.3
			c0.6-12,9.8-20.8,21-20.8c8.4,0,16.8,6.3,20,14.7c5.9,18,26.6,16.5,32.6,10.5c5.3-4.2,11.6-6.3,17.9-6.3
			c16.8,0,30.5,14.7,30.5,31.5c0,7.4-2.2,14.7-7.4,20c-12.1,12.4-1.5,33.1,10.5,33.6c9.5,2.1,16.8,11.6,16.8,22.1
			C448,202.7,439.5,211.8,428.7,212.7z"/>
		<path d="M280.7,327.6c-9.5,9.5-22.1,14.7-35.7,14.7c-13.7,0-26.3-5.3-35.7-14.7c-8.4-7.4-21-8.4-29.4,0c-7.4,8.4-8.4,21,0,29.4
			c17.9,17.9,41,27.3,65.2,27.3s47.3-9.5,65.2-27.3c8.4-8.4,8.4-21,0-29.4C301.8,319.2,289.1,319.2,280.7,327.6z"/>
		<circle cx="169.3" cy="229.9" r="21.2"/>
		<circle cx="320.7" cy="229.9" r="21.2"/>
		<circle cx="245" cy="288.8" r="21.2"/>
	</g>
</g>
<g>
</g>
<g>
</g>
<g>
</g>
<g>
</g>
<g>
</g>
<g>
</g>
<g>
</g>
<g>
</g>
<g>
</g>
<g>
</g>
<g>
</g>
<g>
</g>
<g>
</g>
<g>
</g>
<g>
</g>
</svg>
